Format : AVI
Format/Info : Audio Video Interleave
File size : 700 MiB
Duration : 1h 36mn
Overall bit rate : 1 018 Kbps
Writing application : VirtualDubMod 1.5.4.1 (build 2178/release)
Writing library : VirtualDubMod build 2178/release

Video
ID : 0
Format : MPEG-4 Visual
Format profile : AdvancedSimple@L5
Format settings, BVOP : Yes
Format settings, QPel : No
Format settings, GMC : No warppoints
Format settings, Matrix : Custom
Codec ID : XVID
Codec ID/Hint : XviD
Duration : 1h 36mn
Bit rate : 883 Kbps
Width : 720 pixels
Height : 304 pixels
Display aspect ratio : 2.35:1
Frame rate : 25.000 fps
Resolution : 24 bits
Colorimetry : 4:2:0
Scan type : Progressive
Bits/(Pixel*Frame) : 0.161
Stream size : 607 MiB (87%)
Writing library : XviD 1.2.1 (UTC 2008-12-04)

Audio
ID : 1
Format : MPEG Audio
Format version : Version 1
Format profile : Layer 3
Codec ID : 55
Codec ID/Hint : MP3
Duration : 1h 36mn
Bit rate mode : Constant
Bit rate : 128 Kbps
Channel(s) : 2 channels
Sampling rate : 48.0 KHz
Resolution : 16 bits
Stream size : 88.0 MiB (13%)
Alignment : Aligned on interleaves
Interleave, duration : 80 ms (2.00 video frames)
Interleave, preload duration : 504 ms
Writing library : LAME3.98r
Encoding settings : -m j -V 4 -q 2 -lowpass 17 -b 128
Language : English

Starring
Adrien Brody
Forest Whitaker
Maggie Grace
Clifton Collins Jr.
Cam Gigandet
Fisher Stevens
Travis Fimmel
Ethan Cohn

26 men are chosen to participate in the roles of guards and prisoners in a psychological study, for which each participant is to receive $14,000 after two weeks. Included is Travis (Adrien Brody), and Barris (Forest Whitaker), who met at the introduction of the study. The group is driven to an isolated building that will be used for the prison and left there by the doctor in charge, under the basic rules of prisoners must clean their plate at every meal, prisoners cannot touch the guards, and the guards are in charge. The building is under constant surveillance, and if excessive force is used by anyone involved the experiment will end.
 
http://www.imdb.com/title/tt0997152/

screens
 
http://img574.imageshack.us/img574/9681/experimentxvidviceavisn.jpg 
http://img140.imageshack.us/img140/9681/experimentxvidviceavisn.jpg 
http://img251.imageshack.us/img251/9681/experimentxvidviceavisn.jpg 
http://img829.imageshack.us/img829/9681/experimentxvidviceavisn.jpg